<svg width="484.4" height="484.4" viewBox="0 0 21.296 29.04" fill="none" xmlns="http://www.w3.org/2000/svg">
  <path fill-rule="evenodd" clip-rule="evenodd" d="m4.206 17.178 2.158-7.474h8.632l2.158 7.474z" fill="#EED9C3"/>
  <path fill="#353535" d="M14.058 13.495a.61.602 0 0 1-.61.601.61.602 0 0 1-.61-.601.61.602 0 0 1 1.22 0"/>
  <path fill-rule="evenodd" clip-rule="evenodd" d="M9.412 12.811a.38.38 0 0 0-.386-.38H7.208a.38.38 0 0 0-.385.38v1.178c0 .315.259.57.578.57h.662c.358 0 .701-.14.954-.39a1.32 1.32 0 0 0 .395-.941z" fill="#A78347"/>
  <path fill-rule="evenodd" clip-rule="evenodd" d="M16.94 2.56 21.224.368 18.876 9.08l-1.936 1.936zm-12.656 0L0 .368 2.347 9.08l1.936 1.936z" fill="#E3B261"/>
  <path fill-rule="evenodd" clip-rule="evenodd" d="M17.154 6.535s-3.237-2.129-6.474-2.129-6.474 2.129-6.474 2.129v6.385l.863 1.703c.62-2.354 3.422-3.334 5.374-1.88l.237.177.237-.177c1.951-1.454 4.754-.474 5.373 1.88l.863-1.703z" fill="#E3B261"/>
  <path fill-rule="evenodd" clip-rule="evenodd" d="M8.522 16.114 6.796 26.118l-2.381-1.703 1.949-7.237z" fill="#D4D4D4"/>
  <path fill-rule="evenodd" clip-rule="evenodd" d="m12.838 16.114 1.726 10.004 2.381-1.703-1.949-7.237z" fill="#D5D5D5"/>
  <path fill-rule="evenodd" clip-rule="evenodd" d="m4.206 12.921-1.727 6.386 2.158 4.257 1.726-6.385zm12.948 0 1.726 6.385-2.158 4.257-1.726-6.385zm-8.632 3.193L6.58 26.544l4.1 2.128 4.1-2.129-1.942-10.43-1.997-.984-.161-.079z" fill="#E6E6E6"/>
  <path fill-rule="evenodd" clip-rule="evenodd" d="M11.453 16.54H9.942v.532c0 .197.08.387.221.527s.334.218.534.218h.001c.2 0 .392-.078.534-.218s.221-.329.221-.527z" fill="#353535"/>
</svg>
